<svg xmlns:xmlns="http://www.w3.org/2000/svg" width="24" height="24" fill="none" stroke="currentColor" stroke-linecap="round" stroke-linejoin="round" stroke-width="2" class="cursor-pointer h-5 hover:text-red-500 lucide lucide-youtube text-gray-400 w-5" data-lucide="youtube" viewBox="0 0 24 24"><path d="M2.5 17a24.1 24.1 0 0 1 0-10 2 2 0 0 1 1.4-1.4 49.6 49.6 0 0 1 16.2 0A2 2 0 0 1 21.5 7a24.1 24.1 0 0 1 0 10 2 2 0 0 1-1.4 1.4 49.6 49.6 0 0 1-16.2 0A2 2 0 0 1 2.5 17"></path><path d="m10 15 5-3-5-3Z"></path></svg>